<?xml version="1.0" standalone="no"?>
<svg viewBox="0 0 200 200" xmlns="http://www.w3.org/2000/svg">
  <path fill="#F2F4F8" d="M33.1,-59.5C41.9,-52.3,47.4,-41.4,50.4,-30.9C53.5,-20.3,54.3,-10.2,55.7,0.8C57,11.7,58.9,23.4,53.4,29.6C47.8,35.9,34.6,36.6,24.5,38.2C14.3,39.9,7.2,42.6,-1.4,45C-9.9,47.4,-19.9,49.5,-27.9,46.6C-35.9,43.7,-41.9,35.7,-51.2,27.1C-60.5,18.5,-73.1,9.2,-77.2,-2.4C-81.3,-14,-76.9,-27.9,-66.5,-34.6C-56,-41.2,-39.6,-40.6,-27.5,-45.9C-15.4,-51.2,-7.7,-62.4,2.2,-66.3C12.2,-70.2,24.3,-66.7,33.1,-59.5Z" transform="translate(100 100)" />
</svg>
